<?xml version="1.0" encoding="UTF-8" standalone="no"?>
<!-- Created with Inkscape (http://www.inkscape.org/) -->

<svg
   xmlns:dc="http://purl.org/dc/elements/1.1/"
   xmlns:cc="http://creativecommons.org/ns#"
   xmlns:rdf="http://www.w3.org/1999/02/22-rdf-syntax-ns#"
   xmlns:svg="http://www.w3.org/2000/svg"
   xmlns="http://www.w3.org/2000/svg"
   xmlns:sodipodi="http://sodipodi.sourceforge.net/DTD/sodipodi-0.dtd"
   xmlns:inkscape="http://www.inkscape.org/namespaces/inkscape"
   width="732.80316"
   height="358.51968"
   viewBox="0 0 193.88764 94.85893"
   version="1.1"
   id="svg8"
   inkscape:version="0.92.2 (5c3e80d, 2017-08-06)"
   sodipodi:docname="logo.svg">
  <defs
     id="defs2" />
  <sodipodi:namedview
     id="base"
     pagecolor="#ffffff"
     bordercolor="#666666"
     borderopacity="1.0"
     inkscape:pageopacity="0.0"
     inkscape:pageshadow="2"
     inkscape:zoom="0.35"
     inkscape:cx="142.43832"
     inkscape:cy="812.63847"
     inkscape:document-units="mm"
     inkscape:current-layer="layer1"
     showgrid="false"
     inkscape:measure-start="-900,1117.14"
     inkscape:measure-end="-671.429,948.571"
     showguides="false"
     units="px"
     inkscape:window-width="1920"
     inkscape:window-height="1017"
     inkscape:window-x="-8"
     inkscape:window-y="-8"
     inkscape:window-maximized="1" />
  <metadata
     id="metadata5">
    <rdf:RDF>
      <cc:Work
         rdf:about="">
        <dc:format>image/svg+xml</dc:format>
        <dc:type
           rdf:resource="http://purl.org/dc/dcmitype/StillImage" />
        <dc:title></dc:title>
      </cc:Work>
    </rdf:RDF>
  </metadata>
  <g
     inkscape:label="Capa 1"
     inkscape:groupmode="layer"
     id="layer1"
     transform="translate(0,-202.1437)">
    <flowRoot
       xml:space="preserve"
       id="flowRoot821"
       style="font-style:normal;font-weight:normal;font-size:85.33333588px;line-height:1.25;font-family:sans-serif;letter-spacing:0px;word-spacing:0px;fill:#000000;fill-opacity:1;stroke:none"
       transform="scale(0.26458333)"><flowRegion
         id="flowRegion823"
         style="font-size:85.33333588px"><rect
           id="rect825"
           width="614.28571"
           height="168.57143"
           x="82.85714"
           y="133.94826"
           style="font-size:85.33333588px" /></flowRegion><flowPara
         id="flowPara827" /></flowRoot>    <g
       id="g995"
       transform="translate(-11.339357,188.23332)">
      <flowRoot
         transform="matrix(0.26458333,0,0,0.26458333,31.75,36.285716)"
         style="font-style:normal;font-weight:normal;font-size:40px;line-height:1.25;font-family:sans-serif;letter-spacing:0px;word-spacing:0px;fill:#000000;fill-opacity:1;stroke:none"
         id="flowRoot829"
         xml:space="preserve"><flowRegion
           id="flowRegion831"><rect
             y="171.09111"
             x="125.71429"
             height="99.999985"
             width="354.28571"
             id="rect833" /></flowRegion><flowPara
           style="font-size:85.33333588px"
           id="flowPara835">YouTubo</flowPara></flowRoot>      <path
         inkscape:transform-center-y="0.51680086"
         inkscape:transform-center-x="-0.51680153"
         d="m 34.773809,87.60119 6.72332,2.279944 5.689716,-4.245976 -0.09073,7.098799 5.796381,4.099163 -6.779397,2.107355 -2.107355,6.779395 -4.099163,-5.796379 -7.098799,0.09074 4.245975,-5.68972 z"
         inkscape:randomized="0"
         inkscape:rounded="0"
         inkscape:flatsided="false"
         sodipodi:arg2="-1.727876"
         sodipodi:arg1="-2.3561945"
         sodipodi:r2="5.3453903"
         sodipodi:r1="10.690781"
         sodipodi:cy="95.160713"
         sodipodi:cx="42.333332"
         sodipodi:sides="5"
         id="path857"
         style="fill:#ffff00;fill-opacity:1;stroke:none;stroke-width:0.26458332;stroke-opacity:1"
         sodipodi:type="star" />
      <path
         inkscape:transform-center-y="0.51680086"
         inkscape:transform-center-x="-0.51680153"
         d="m 49.376054,62.137963 6.72332,2.279944 5.689716,-4.245975 -0.09074,7.098798 5.796382,4.099163 -6.779398,2.107355 -2.107355,6.779398 -4.099163,-5.796381 -7.098799,0.09073 4.245976,-5.689716 z"
         inkscape:randomized="0"
         inkscape:rounded="0"
         inkscape:flatsided="false"
         sodipodi:arg2="-1.727876"
         sodipodi:arg1="-2.3561945"
         sodipodi:r2="5.3453903"
         sodipodi:r1="10.690781"
         sodipodi:cy="69.697487"
         sodipodi:cx="56.935577"
         sodipodi:sides="5"
         id="path857-0"
         style="fill:#ffff00;fill-opacity:1;stroke:none;stroke-width:0.26458332;stroke-opacity:1"
         sodipodi:type="star" />
      <path
         inkscape:transform-center-y="0.51680086"
         inkscape:transform-center-x="-0.51680153"
         d="m 76.590341,47.018914 6.72332,2.279944 5.689716,-4.245976 -0.09073,7.098799 5.796382,4.099163 -6.779398,2.107355 -2.107355,6.779398 -4.099163,-5.796381 -7.098799,0.09073 4.245975,-5.689716 z"
         inkscape:randomized="0"
         inkscape:rounded="0"
         inkscape:flatsided="false"
         sodipodi:arg2="-1.727876"
         sodipodi:arg1="-2.3561945"
         sodipodi:r2="5.3453903"
         sodipodi:r1="10.690781"
         sodipodi:cy="54.578438"
         sodipodi:cx="84.149864"
         sodipodi:sides="5"
         id="path857-4"
         style="fill:#ffff00;fill-opacity:1;stroke:none;stroke-width:0.26458332;stroke-opacity:1"
         sodipodi:type="star" />
      <path
         inkscape:transform-center-y="0.51680086"
         inkscape:transform-center-x="-0.51680153"
         d="m 106.82844,43.995099 6.72332,2.279944 5.68972,-4.245976 -0.0907,7.098799 5.79638,4.099163 -6.7794,2.107355 -2.10735,6.779398 -4.09916,-5.796382 -7.0988,0.09074 4.24597,-5.689716 z"
         inkscape:randomized="0"
         inkscape:rounded="0"
         inkscape:flatsided="false"
         sodipodi:arg2="-1.727876"
         sodipodi:arg1="-2.3561945"
         sodipodi:r2="5.3453903"
         sodipodi:r1="10.690781"
         sodipodi:cy="51.554623"
         sodipodi:cx="114.38796"
         sodipodi:sides="5"
         id="path857-7"
         style="fill:#ffff00;fill-opacity:1;stroke:none;stroke-width:0.26458332;stroke-opacity:1"
         sodipodi:type="star" />
      <path
         inkscape:transform-center-y="0.51680086"
         inkscape:transform-center-x="-0.51680153"
         d="m 133.28677,51.554631 6.72332,2.279944 5.68972,-4.245976 -0.0907,7.098799 5.79638,4.099163 -6.7794,2.107355 -2.10736,6.779398 -4.09916,-5.796381 -7.0988,0.09074 4.24598,-5.689716 z"
         inkscape:randomized="0"
         inkscape:rounded="0"
         inkscape:flatsided="false"
         sodipodi:arg2="-1.727876"
         sodipodi:arg1="-2.3561945"
         sodipodi:r2="5.3453903"
         sodipodi:r1="10.690781"
         sodipodi:cy="59.114155"
         sodipodi:cx="140.8463"
         sodipodi:sides="5"
         id="path857-02"
         style="fill:#ffff00;fill-opacity:1;stroke:none;stroke-width:0.26458332;stroke-opacity:1"
         sodipodi:type="star" />
      <path
         inkscape:transform-center-y="0.51680086"
         inkscape:transform-center-x="-0.51680153"
         d="m 153.69748,67.429628 6.72332,2.279943 5.68972,-4.245975 -0.0907,7.098798 5.79638,4.099163 -6.77939,2.107356 -2.10736,6.779397 -4.09916,-5.796381 -7.0988,0.09073 4.24597,-5.689716 z"
         inkscape:randomized="0"
         inkscape:rounded="0"
         inkscape:flatsided="false"
         sodipodi:arg2="-1.727876"
         sodipodi:arg1="-2.3561945"
         sodipodi:r2="5.3453903"
         sodipodi:r1="10.690781"
         sodipodi:cy="74.989151"
         sodipodi:cx="161.257"
         sodipodi:sides="5"
         id="path857-5"
         style="fill:#ffff00;fill-opacity:1;stroke:none;stroke-width:0.26458332;stroke-opacity:1"
         sodipodi:type="star" />
      <path
         inkscape:transform-center-y="0.51680086"
         inkscape:transform-center-x="-0.51680153"
         d="m 166.54866,88.596292 6.72332,2.279943 5.68972,-4.245975 -0.0907,7.098799 5.79638,4.099163 -6.77939,2.107355 -2.10736,6.779393 -4.09916,-5.79638 -7.0988,0.0907 4.24598,-5.689718 z"
         inkscape:randomized="0"
         inkscape:rounded="0"
         inkscape:flatsided="false"
         sodipodi:arg2="-1.727876"
         sodipodi:arg1="-2.3561945"
         sodipodi:r2="5.3453903"
         sodipodi:r1="10.690781"
         sodipodi:cy="96.155815"
         sodipodi:cx="174.10818"
         sodipodi:sides="5"
         id="path857-2"
         style="fill:#ffff00;fill-opacity:1;stroke:none;stroke-width:0.26458332;stroke-opacity:1"
         sodipodi:type="star" />
      <path
         inkscape:connector-curvature="0"
         d="m 150.21898,18.490796 c 0.7078,0.0159 1.41588,0.0106 2.12378,0.007 0.49984,-0.005 0.99969,-0.005 1.49954,-0.005 0.46044,-10e-4 0.92088,-9.2e-4 1.38131,0.001 0.55617,-0.0545 1.08224,0.11198 1.60823,0.29724 0.55409,0.15401 1.06419,0.44303 1.58342,0.703 0.4574,0.23806 0.85958,0.58597 1.27097,0.91087 0.42909,0.30184 0.80582,0.68553 1.21613,1.01953 0.36436,0.28834 0.65602,0.62372 0.91796,1.03081 0.29905,0.3646 0.5319,0.78768 0.78294,1.19459 0.27296,0.41479 0.55454,0.8192 0.84404,1.21822 0.23649,0.34447 0.47849,0.68585 0.68107,1.05883 0.20698,0.30154 0.38785,0.62421 0.59134,0.9283 0.25478,0.44246 0.50408,0.88945 0.75512,1.33507 0.18311,0.42783 0.45129,0.78459 0.71111,1.14976 0.20357,0.37772 0.42882,0.73817 0.64548,1.10591 0.18643,0.46655 0.50909,0.81347 0.77213,1.21525 0.24759,0.34809 0.48413,0.70567 0.72783,1.05765 0.22183,0.38053 0.43405,0.75975 0.69814,1.10378 0.3365,0.46769 0.69615,0.91313 1.02456,1.38918 0.34136,0.51844 0.63608,1.07506 0.95958,1.60952 0.26295,0.39499 0.50382,0.81209 0.83917,1.13133 0.2875,0.29665 0.58927,0.56448 0.90843,0.81419 0.40617,0.33096 0.88135,0.49917 1.33899,0.70506 0.36632,0.21859 0.70266,0.48786 1.09895,0.6297 0.45297,0.19485 0.88907,0.44047 1.33187,0.66547 0.51572,0.20154 1.01834,0.44009 1.52634,0.66556 0.58816,0.22211 1.16292,0.48703 1.7344,0.75982 0.56274,0.325 1.16635,0.50567 1.78728,0.59832 0.49124,0.0596 0.98585,0.0565 1.47914,0.0548 0.40991,-0.003 0.81981,-0.006 1.22973,-0.008 0.46354,0.0403 0.91539,-0.043 1.37243,-0.11499 0.51293,-0.11496 0.97668,-0.3801 1.4343,-0.65674 0.24995,-0.15731 0.54344,-0.21183 0.7952,-0.36232 0.063,-0.0376 0.23689,-0.17955 0.17502,-0.13954 -0.74366,0.48098 -1.48075,0.97528 -2.22113,1.46291 1.01315,-0.8455 2.1277,-1.48308 3.21697,-2.2038 0.72905,-0.48239 -2.91549,1.93096 -2.18662,1.44822 0.8759,-0.58013 1.75181,-1.16025 2.62771,-1.74037 0.44956,-0.25972 0.92903,-0.45697 1.36302,-0.74987 0.45179,-0.31104 0.95138,-0.5041 1.4296,-0.74954 0.47844,-0.17706 0.93338,-0.42454 1.40911,-0.6093 0.38894,-0.18185 0.82222,-0.23191 1.20828,-0.4132 0.30898,-0.17817 0.6674,-0.12654 0.9842,-0.25481 0.3173,-0.12645 0.65345,-0.15114 0.986,-0.17045 0.22957,-0.0211 0.77124,0.0133 0.91941,-0.21188 -1.95747,2.01701 -1.73512,1.83122 -3.28081,2.36699 -0.37554,0.0645 -0.72929,0.20237 -1.09597,0.30606 -0.33731,0.0147 -0.61916,0.19572 -0.92218,0.34024 -1.0831,0.32893 -2.65668,1.55506 1.45008,-1.14033 -0.0538,0.0369 -0.10698,0.0749 -0.16136,0.11065 -0.86275,0.56637 -1.72606,1.13161 -2.58999,1.69557 -0.30685,0.2003 -0.0292,0.0168 -0.35011,0.19538 -0.0604,0.0336 -0.2356,0.14826 -0.17743,0.10968 0.7441,-0.49357 1.4902,-0.98313 2.2353,-1.47469 -7.03983,4.66179 -0.30586,0.20283 -0.37515,0.24766 -0.87268,0.5646 -1.73201,1.15626 -2.60506,1.72008 -0.18418,0.11895 -0.38623,0.19491 -0.5708,0.32092 -0.18832,0.10127 -0.3708,0.19799 -0.55214,0.31329 -0.0526,0.0335 -0.21354,0.12713 -0.1615,0.0925 2.48429,-1.65428 3.00799,-2.06028 2.15667,-1.4081 -0.31848,0.23973 -0.59674,0.54156 -0.84258,0.87431 -0.28284,0.36113 -0.40995,0.81442 -0.57169,1.25147 -0.18949,0.40685 -0.27468,0.85625 -0.38382,1.29592 -0.0781,0.46337 -0.2716,0.88061 -0.40702,1.32192 -0.12973,0.4151 -0.28494,0.82278 -0.47011,1.20909 -0.21724,0.38589 -0.45463,0.75673 -0.72054,1.09995 -0.29358,0.38766 -0.58965,0.77409 -0.8972,1.14708 -0.94772,1.04091 -2.1514,1.74941 -3.34697,2.3519 -0.4094,0.14367 -0.78134,0.37871 -1.16353,0.59437 0.74756,-0.49156 1.49386,-0.98567 2.24267,-1.47468 0.0583,-0.038 -0.11284,0.0832 -0.1709,0.1217 -0.86254,0.57142 -1.72683,1.13933 -2.59078,1.70789 -0.0571,0.0376 -0.22918,0.14819 -0.17223,0.11043 2.35554,-1.56172 2.96089,-2.01245 2.05601,-1.34582 -0.3417,0.23205 -0.63328,0.52417 -0.90705,0.85036 -0.96143,1.04866 -2.35234,1.73034 -3.42877,2.42677 -0.3869,0.0999 -0.74331,0.30216 -1.12325,0.42837 -0.37833,0.20713 -0.78622,0.32747 -1.16863,0.51705 -0.0642,0.0275 -0.12966,0.0512 -0.19247,0.0826 -0.31411,0.157 -0.0475,0.0565 -0.36874,0.19459 -0.18277,0.0786 -0.36284,0.11538 -0.53983,0.21124 -0.319,0.16607 -0.66784,0.19702 -1.01251,0.21915 -0.37545,0.0167 -0.7513,0.0135 -1.12696,0.0125 -0.38153,-0.001 -0.76306,-0.002 -1.1446,-0.003 -0.3813,-2.9e-4 -0.7626,-2.9e-4 -1.14391,-2.9e-4 -0.38119,0 -0.76238,10e-6 -1.14358,10e-6 -0.38119,1e-5 -0.76238,1e-5 -1.14357,1e-5 -0.38119,0 -0.76238,0 -1.14357,0 -0.3812,0 -0.76239,0 -1.14358,0 -0.38119,0 -0.76238,0 -1.14357,0 -0.3839,-0.0208 -0.75389,-5.8e-4 -1.12966,0.0837 -0.91004,0.18394 -2.49022,1.43854 1.92961,-1.35471 0.0532,-0.0336 -0.10278,0.0758 -0.14777,0.12273 -0.11279,0.11777 -0.13352,0.18487 -0.20887,0.3336 -0.13936,0.41786 0.0916,0.8253 0.2093,1.21737 0.1274,0.44161 0.16321,0.90474 0.18351,1.36637 0.0136,0.4408 0.0109,0.88198 0.01,1.32298 -0.001,0.43853 -0.002,0.87707 -0.002,1.31561 0,0.43862 0,0.87725 0,1.31587 0,0.43867 1e-5,0.87734 1e-5,1.31601 -0.006,0.43615 0.0133,0.87312 -0.0126,1.30849 -0.0359,0.25303 -0.0162,0.12816 -0.0589,0.37468 0,0 -2.54805,1.42113 -2.54805,1.42113 v 0 c 0.0428,-0.24046 0.02,-0.12165 0.0681,-0.35649 0.0784,-0.41462 0.0107,-0.84935 0.033,-1.27105 0,-0.43867 0,-0.87734 -1e-5,-1.31601 -1e-5,-0.43871 -2e-5,-0.87741 0,-1.31611 0,-0.43872 7.6e-4,-0.87743 0.002,-1.31615 10e-4,-0.43666 0.004,-0.8734 -0.004,-1.31 -0.0127,-0.43288 -0.0331,-0.86903 -0.14377,-1.28622 -0.13501,-0.47042 -0.38087,-0.92539 -0.30719,-1.43643 0.46098,-1.45562 1.96297,-2.17769 3.25713,-2.40615 0.38411,-0.0602 0.77065,-0.039 1.1575,-0.0412 0.38119,0 0.76238,0 1.14357,0 0.38119,0 0.76239,0 1.14358,0 0.38119,0 0.76238,0 1.14357,0 0.38119,-1e-5 0.76238,-1e-5 1.14357,-2e-5 0.3812,0 0.7624,-2e-5 1.14359,10e-6 0.38137,6e-5 0.76272,1.6e-4 1.14409,5.8e-4 0.3815,5.8e-4 0.763,0.002 1.1445,0.002 0.37155,-8.7e-4 0.74387,8.7e-4 1.11432,-0.0365 0.33402,-0.045 0.65645,-0.13143 0.96395,-0.29315 0.37506,-0.13471 0.73049,-0.32023 1.09665,-0.48291 0.39787,-0.15531 0.78087,-0.3539 1.18026,-0.50454 0.36874,-0.15085 0.73893,-0.29827 1.10498,-0.4567 -4.22419,2.82219 -2.27574,1.62782 -1.39494,0.84329 0.28122,-0.33546 0.52271,-0.68992 0.89024,-0.91137 0.9722,-0.83927 0.16076,-0.15123 2.77016,-1.88272 0.0573,-0.0381 0.23263,-0.14551 0.17547,-0.10707 -0.74777,0.50302 -1.4977,1.00177 -2.24746,1.50087 -0.0582,0.0387 0.11517,-0.0799 0.17275,-0.1198 0.86532,-0.57577 1.73064,-1.15155 2.59595,-1.72732 0.38105,-0.21613 0.77225,-0.40067 1.16294,-0.59222 0.9514,-0.58926 0.26728,-0.16853 -2.04211,1.37005 -0.05,0.0333 0.099,-0.0686 0.14977,-0.10023 0.157,-0.0977 0.1482,-0.0645 0.28624,-0.20537 0.0481,-0.0491 0.0898,-0.10573 0.13476,-0.15858 0.18235,-0.17008 0.2939,-0.35758 0.45022,-0.55373 0.1491,-0.18708 0.33578,-0.33962 0.45817,-0.5574 0.24821,-0.3504 0.52214,-0.67398 0.73907,-1.05419 0.21126,-0.35459 0.335,-0.75227 0.49792,-1.13748 0.11339,-0.4512 0.32326,-0.85318 0.41094,-1.31162 0.10952,-0.45254 0.18933,-0.91804 0.36656,-1.3442 0.19238,-0.43544 0.26861,-0.93158 0.54743,-1.31522 0.22268,-0.37622 0.49797,-0.68066 0.79637,-0.97502 1.10559,-0.79478 2.22377,-1.56194 3.39412,-2.2182 0.71158,-0.40721 -0.30591,0.17199 0.38835,-0.21335 0.0617,-0.0342 0.24219,-0.14703 0.1831,-0.10721 -0.74013,0.49885 -2.97089,1.97485 -2.22651,1.48445 0.13788,-0.0908 6.21806,-4.13963 0.37401,-0.24828 0.8678,-0.57482 1.7333,-1.15427 2.6034,-1.72445 0.11541,-0.0756 0.23867,-0.1342 0.3571,-0.20337 0.058,-0.0339 0.23033,-0.13942 0.17416,-0.10159 -0.90003,0.60621 -3.1116,2.07034 -2.09479,1.39707 1.4521,-0.95908 2.10047,-1.55692 3.40954,-2.0487 0.30557,-0.1505 0.62242,-0.22676 0.94646,-0.30521 0.35882,-0.11948 0.72691,-0.18519 1.08459,-0.30977 1.41094,-0.49671 1.92317,-0.83279 -1.17934,1.66414 -0.32075,-0.006 -0.64489,0.12918 -0.96995,0.10031 -0.32657,0.0372 -0.64567,0.10842 -0.96073,0.21524 -0.33087,0.0551 -0.65541,0.13122 -0.96819,0.27198 -0.40429,0.11524 -0.80056,0.25875 -1.19462,0.41405 -0.46559,0.20572 -0.93141,0.41059 -1.39514,0.62144 -0.48303,0.23004 -0.96106,0.47207 -1.41548,0.77145 -0.45369,0.25222 -0.9165,0.48325 -1.36169,0.75562 0.73021,-0.48702 2.92095,-1.94786 2.19062,-1.46106 -0.87688,0.58447 -1.75623,1.16409 -2.6303,1.75413 -0.72708,0.49081 1.46205,-0.96604 2.18934,-1.45646 0.33085,-0.2231 -0.95039,0.5967 -0.59245,0.43366 -1.23457,0.84026 -2.2887,1.66385 -3.57117,2.25708 -0.47096,0.27078 -0.9694,0.48434 -1.49314,0.56944 -0.46579,0.0699 -0.93063,0.10398 -1.40077,0.0867 -0.40857,10e-4 -0.81714,0.004 -1.22571,0.002 -0.49962,-0.005 -1.00127,-0.0109 -1.49612,-0.0999 -0.63142,-0.12705 -1.23802,-0.35052 -1.81844,-0.66668 -0.57431,-0.26702 -1.15242,-0.51984 -1.74008,-0.74519 -0.51429,-0.22036 -1.01604,-0.47456 -1.53453,-0.68211 -0.43739,-0.22846 -0.87792,-0.45313 -1.3311,-0.63662 -0.38149,-0.17802 -0.72029,-0.44418 -1.09354,-0.64247 -0.47867,-0.20876 -0.95751,-0.42537 -1.38211,-0.76149 -0.32818,-0.25632 -0.62738,-0.54949 -0.92657,-0.84834 -0.33589,-0.35618 -0.59805,-0.78357 -0.86957,-1.20411 -0.31464,-0.53085 -0.59526,-1.08935 -0.94055,-1.59409 -0.33297,-0.46696 -0.6889,-0.91072 -1.03151,-1.36804 -0.26607,-0.34857 -0.47823,-0.73434 -0.70653,-1.1155 -0.24652,-0.35155 -0.48066,-0.71397 -0.72565,-1.06671 -0.27404,-0.39998 -0.58754,-0.7633 -0.78235,-1.22982 -0.21416,-0.35881 -0.43915,-0.70853 -0.63963,-1.0779 -0.26416,-0.37536 -0.52459,-0.75423 -0.71602,-1.18737 -0.24705,-0.4388 -0.49471,-0.87719 -0.7524,-1.30778 -0.20674,-0.31376 -0.40536,-0.63415 -0.60552,-0.95345 -0.19672,-0.35942 -0.43038,-0.69126 -0.65843,-1.02438 -0.29126,-0.40725 -0.57133,-0.8234 -0.8525,-1.24003 -0.25078,-0.40348 -0.48526,-0.82072 -0.77758,-1.18783 -0.24977,-0.37299 -0.54076,-0.67349 -0.87199,-0.95105 -0.40141,-0.34546 -0.79119,-0.71025 -1.21973,-1.01116 -0.38978,-0.32481 -0.787,-0.64374 -1.23122,-0.864 -0.50624,-0.26147 -1.01688,-0.51374 -1.5571,-0.66944 -0.51771,-0.15717 -1.03131,-0.26693 -1.57024,-0.21811 -0.4613,0.002 -0.9226,0.002 -1.3839,10e-4 -0.49576,-3e-5 -0.99151,-5.5e-4 -1.48727,-0.005 -0.71332,-0.004 -1.42681,-0.009 -2.14005,0.007 0,0 2.2848,-1.91031 2.2848,-1.91031 z"
         id="path940"
         style="fill:#000000;fill-opacity:1;stroke:none;stroke-width:0.07156134;stroke-opacity:1" />
      <path
         inkscape:connector-curvature="0"
         d="m 163.55511,57.469966 c -0.63187,0.0275 -1.25134,-0.0772 -1.86688,-0.22797 -0.52919,-0.1191 -0.965,-0.42188 -1.41256,-0.74543 -0.35035,-0.19215 -0.63698,-0.49819 -0.94456,-0.7635 -0.3355,-0.2528 -0.55893,-0.62948 -0.80852,-0.97877 -0.27461,-0.33299 -0.47041,-0.73572 -0.62215,-1.15717 -0.13853,-0.4306 -0.16656,-0.8889 -0.18353,-1.34323 -0.0107,-0.44098 -0.007,-0.88222 -0.006,-1.32332 0.002,-0.43868 0.002,-0.87736 0.003,-1.31604 -0.007,-0.43282 0.0172,-0.86712 -0.0147,-1.29876 -0.10421,-0.43245 -0.22081,-0.86158 -0.34282,-1.28806 -0.1682,-0.48939 -0.32969,-0.98114 -0.51724,-1.46123 -0.20937,-0.53014 -0.42187,-1.05784 -0.59185,-1.6068 -0.16452,-0.57276 -0.26121,-1.16732 -0.42751,-1.73883 -0.13107,-0.55381 -0.35665,-1.06313 -0.53513,-1.59535 -0.20046,-0.47484 -0.38205,-0.95867 -0.55451,-1.44778 -0.1349,-0.47452 -0.33586,-0.91663 -0.49449,-1.38074 -0.20063,-0.50298 -0.44147,-0.9845 -0.67771,-1.46647 -0.2572,-0.50628 -0.53229,-0.99823 -0.79363,-1.50283 -0.27391,-0.41441 -0.48825,-0.86174 -0.70848,-1.31546 -0.26186,-0.55454 -0.51335,-1.11588 -0.78336,-1.66523 -0.29267,-0.47528 -0.57696,-0.95921 -0.78535,-1.49142 -0.18183,-0.36027 -0.36036,-0.72872 -0.56996,-1.06902 -0.20318,-0.32723 -0.40979,-0.6511 -0.61127,-0.98058 -0.29203,-0.41124 -0.49641,-0.88602 -0.71102,-1.35282 -0.20124,-0.51774 -0.3284,-1.06711 -0.54507,-1.57717 -0.20433,-0.40896 -0.4984,-0.63624 -0.88725,-0.74981 -0.37105,-0.0656 -0.75368,-0.0999 -1.12486,-0.0276 -0.46618,0.0584 -0.86023,0.37184 -1.28729,0.56595 -0.71937,0.46186 -2.77168,1.7806 2.01434,-1.32995 0.0674,-0.0438 -0.13131,0.0947 -0.19478,0.14576 -0.18629,0.14988 -0.36245,0.31833 -0.54064,0.48052 -0.22382,0.22032 -0.42627,0.46694 -0.63733,0.70286 0,0 -2.61244,1.22595 -2.61244,1.22595 v 0 c 0.22857,-0.21664 0.42466,-0.46812 0.634,-0.70881 1.02176,-1.08938 2.31457,-1.82281 3.54702,-2.52655 0.42982,-0.22947 0.86164,-0.46302 1.34367,-0.49129 0.40152,-0.0187 0.80871,-5.6e-4 1.19601,0.13468 0.43139,0.19224 0.77062,0.50394 0.99998,0.97505 0.21804,0.50663 0.34727,1.0505 0.54017,1.56921 0.20979,0.45483 0.41098,0.91487 0.70082,1.31174 0.20268,0.32915 0.4165,0.64915 0.61361,0.98233 0.21392,0.36244 0.41157,0.74147 0.59296,1.12621 0.19425,0.52668 0.47794,0.99951 0.75318,1.47366 0.27244,0.54807 0.54053,1.09961 0.7985,1.6568 0.22154,0.44922 0.43717,0.89437 0.70232,1.31231 0.25751,0.50944 0.54088,0.99845 0.7993,1.50635 0.24164,0.49472 0.48228,0.99175 0.69617,1.50302 0.16485,0.46105 0.36176,0.90617 0.49605,1.3804 0.16905,0.49306 0.35271,0.97756 0.55465,1.45385 0.17559,0.53749 0.40674,1.04934 0.53425,1.60829 0.17338,0.56797 0.27149,1.1597 0.43051,1.73327 0.16547,0.54047 0.36908,1.06235 0.57608,1.58315 0.19952,0.48702 0.36484,0.98969 0.54272,1.48749 0.12688,0.44701 0.24412,0.89662 0.37057,1.34394 0.0571,0.44104 0.0211,0.88834 0.0305,1.33326 0,0.43897 -7.6e-4,0.87794 -0.002,1.3169 -0.002,0.43735 -0.005,0.87475 10e-4,1.31208 0.01,0.4182 0.0214,0.84234 0.13674,1.24324 0.1353,0.39617 0.32565,0.76352 0.58073,1.07406 0.232,0.33704 0.45703,0.67588 0.77711,0.91201 0.29346,0.26986 0.58826,0.54051 0.92158,0.74405 0.41937,0.30872 0.85149,0.54912 1.34679,0.65554 0.61002,0.14147 1.22642,0.20189 1.84912,0.16117 0,0 -2.28792,1.91292 -2.28792,1.91292 z"
         id="path942"
         style="fill:#000000;fill-opacity:1;stroke:none;stroke-width:0.07156134;stroke-opacity:1" />
      <path
         inkscape:connector-curvature="0"
         d="m 150.61796,18.967916 c -0.41749,0.44843 -0.83288,0.89553 -1.27747,1.30892 -1.04257,1.00738 -2.26919,1.70715 -3.46077,2.45653 5.86506,-3.88633 -0.24404,0.16513 -0.36732,0.24517 -0.18562,0.12052 -0.55657,0.23819 -0.76949,0.32006 -1.0247,0.34856 -3.00945,1.83665 1.28576,-0.99625 -0.3308,0.2473 -0.63552,0.53362 -0.86794,0.9016 -0.20344,0.3361 -0.31479,0.7249 -0.32683,1.13304 0.0233,0.19599 0.14156,0.2216 0.2888,0.25917 0,0 -2.35263,1.81844 -2.35263,1.81844 v 0 c -0.22626,-0.13316 -0.39578,-0.29008 -0.45486,-0.5908 -0.0293,-0.45792 0.0682,-0.91375 0.25539,-1.31902 0.2521,-0.4554 0.45269,-0.69957 0.82663,-1.03217 1.1908,-0.79235 2.26989,-1.7099 3.57294,-2.17344 0.18681,-0.0812 0.37852,-0.15332 0.55904,-0.2523 0.0612,-0.0335 0.23865,-0.14788 0.18013,-0.10853 -0.0576,0.0388 -6.5137,4.34289 0.36847,-0.24542 0.89169,-0.57286 0.75772,-0.48853 -2.05566,1.38624 -0.0608,0.0405 0.12055,-0.0834 0.17763,-0.13047 0.11828,-0.0977 0.22806,-0.2084 0.34556,-0.30729 0.0608,-0.0512 0.12247,-0.10105 0.18369,-0.15157 0.42962,-0.42438 0.90005,-0.79741 1.26579,-1.30348 0,0 2.62314,-1.21843 2.62314,-1.21843 z"
         id="path944"
         style="fill:#000000;fill-opacity:1;stroke:none;stroke-width:0.07156134;stroke-opacity:1" />
      <path
         inkscape:connector-curvature="0"
         d="m 170.14214,55.792566 c 0.0216,0.72465 0.0993,1.44524 0.14662,2.16812 0.0322,0.50177 0.0411,1.00485 0.0451,1.50778 1e-5,0.49169 -0.002,0.98339 -10e-4,1.4751 -7.6e-4,0.45177 -0.0148,0.90117 0.0444,1.34871 0.0158,0.21141 0.0674,0.40342 0.14324,0.59439 0,0 -2.46149,1.60135 -2.46149,1.60135 v 0 c -0.0876,-0.21634 -0.16333,-0.4308 -0.17853,-0.6727 -0.07,-0.46451 -0.0772,-0.92584 -0.063,-1.39725 0.001,-0.49054 0.002,-0.98107 -7.6e-4,-1.47161 -0.001,-0.49932 -0.003,-0.99883 -0.0256,-1.49762 -0.0352,-0.72877 -0.0896,-1.45608 -0.16549,-2.18081 0,0 2.51635,-1.47546 2.51635,-1.47546 z"
         id="path946"
         style="fill:#000000;fill-opacity:1;stroke:none;stroke-width:0.07156134;stroke-opacity:1" />
      <path
         inkscape:connector-curvature="0"
         d="m 154.65134,22.240416 c -0.22689,0.45741 -0.54201,0.99292 -0.4712,1.54538 0.0307,0.0489 0.0564,0.1381 0.13265,0.0891 0.0375,-0.0241 0.12575,-0.13181 0.0877,-0.10872 -0.7772,0.47215 -1.5351,0.98554 -2.31142,1.45959 -0.0567,0.0346 0.10183,-0.0903 0.14972,-0.13956 0.0536,-0.0552 0.10301,-0.11563 0.15452,-0.17344 0.82476,-1.20487 0.95831,-0.88134 2.91394,-2.21908 0,0 -2.19356,2.03325 -2.19356,2.03325 v 0 c 3.71049,-2.58244 2.39914,-2.10078 1.88496,-1.06267 -0.84667,1.07652 -0.92355,0.91129 -2.86765,2.05673 -0.093,0.0548 -0.29991,-0.14518 -0.3442,-0.20426 -0.043,-0.0573 -0.068,-0.12948 -0.10204,-0.19422 -0.13185,-0.63268 0.14605,-1.21232 0.37286,-1.77616 0,0 2.59368,-1.30593 2.59368,-1.30593 z"
         id="path948"
         style="fill:#ff0000;fill-opacity:1;stroke:none;stroke-width:0.07156134;stroke-opacity:1" />
      <path
         inkscape:connector-curvature="0"
         d="m 167.74566,57.944956 c -0.0683,-0.0331 -0.19763,-0.11134 -0.28281,-0.10076 -0.0311,0.004 -0.10974,0.0695 -0.0822,0.0523 0.79715,-0.50025 1.5943,-1.00049 2.39145,-1.50074 -0.1,0.0436 -0.0626,0.01 -0.12002,0.0881 0.0206,0.29038 0.13894,0.67181 0.36951,0.82021 0.11519,-0.0237 0.0678,0.0104 0.13478,-0.1146 -0.78917,0.51065 -1.57499,1.02821 -2.3675,1.53195 -0.0298,0.0189 0.0575,-0.0448 0.0776,-0.0765 0.0543,-0.0856 0.0692,-0.19956 0.0908,-0.29802 0.005,-0.1466 0.0619,-0.31384 0.0285,-0.46109 0,0 2.5659,-1.44271 2.5659,-1.44271 v 0 c -0.0325,0.14299 -0.0435,0.31961 -0.0493,0.47569 -0.008,0.0822 -0.0174,0.51139 -0.0851,0.56094 -1.09347,0.80038 -1.79907,2.23195 -2.7946,1.56143 -0.27569,-0.29972 -0.42074,-0.69924 -0.52149,-1.11531 -0.0797,-1.44507 2.00994,-2.52938 3.02868,-1.73773 0,0 -2.38422,1.75678 -2.38422,1.75678 z"
         id="path950"
         style="fill:#000000;fill-opacity:1;stroke:none;stroke-width:0.07156134;stroke-opacity:1" />
      <path
         inkscape:connector-curvature="0"
         d="m 166.44407,65.017616 c -0.46782,0.32982 -0.89164,0.73103 -1.34083,1.09093 -0.34647,0.26087 -0.69127,0.52189 -1.01393,0.82093 -0.23639,0.23457 -0.12259,0.115 -0.34183,0.35819 0,0 -2.60188,1.25091 -2.60188,1.25091 v 0 c 0.20556,-0.27602 0.096,-0.14522 0.32871,-0.39231 0.31518,-0.32044 0.64906,-0.60247 1.00279,-0.86304 0.47148,-0.31281 0.86689,-0.7503 1.33053,-1.0785 0,0 2.63644,-1.18711 2.63644,-1.18711 z"
         id="path952"
         style="fill:#ff0000;fill-opacity:1;stroke:none;stroke-width:0.07156134;stroke-opacity:1" />
      <path
         inkscape:connector-curvature="0"
         d="m 168.56739,64.401076 c -1.05493,0.45946 -3.4439,2.1569 0.82446,-0.66839 -0.23615,0.15368 -0.4535,0.33957 -0.66959,0.52708 0,0 -2.61174,1.20383 -2.61174,1.20383 v 0 c 0.21195,-0.20121 0.42454,-0.40222 0.65866,-0.56932 1.31581,-0.87489 2.60023,-1.85978 4.01814,-2.51218 0,0 -2.21993,2.01898 -2.21993,2.01898 z"
         id="path954"
         style="fill:#ff0000;fill-opacity:1;stroke:none;stroke-width:0.07156134;stroke-opacity:1" />
    </g>
  </g>
</svg>
